<svg width="56" height="56" viewBox="0 0 56 56" fill="none" xmlns="http://www.w3.org/2000/svg">
<g filter="url(#filter0_ii_238_380)">
<path d="M52 14.2856C52 12.467 51.2776 10.7228 49.9916 9.43684C48.7056 8.15088 46.9615 7.42843 45.1429 7.42843H43.4286V5.76235C43.4286 4.83985 42.7193 4.04806 41.7968 4.00199C41.565 3.99082 41.3334 4.02683 41.1159 4.10783C40.8984 4.18883 40.6997 4.31314 40.5317 4.47323C40.3637 4.63331 40.2299 4.82584 40.1385 5.03914C40.0472 5.25244 40 5.48208 40 5.71413V7.42843H16V5.76235C16 4.83985 15.2907 4.04806 14.3682 4.00199C14.1364 3.99082 13.9048 4.02683 13.6873 4.10783C13.4699 4.18883 13.2711 4.31314 13.1031 4.47323C12.9351 4.63331 12.8014 4.82584 12.71 5.03914C12.6186 5.25244 12.5714 5.48208 12.5714 5.71413V7.42843H10.8571C9.03852 7.42843 7.29437 8.15088 6.00841 9.43684C4.72245 10.7228 4 12.467 4 14.2856V15.5713C4 15.685 4.04515 15.794 4.12553 15.8744C4.2059 15.9547 4.31491 15.9999 4.42857 15.9999H51.5714C51.6851 15.9999 51.7941 15.9547 51.8745 15.8744C51.9548 15.794 52 15.685 52 15.5713V14.2856ZM4 45.1428C4 46.9615 4.72245 48.7056 6.00841 49.9916C7.29437 51.2775 9.03852 52 10.8571 52H45.1429C46.9615 52 48.7056 51.2775 49.9916 49.9916C51.2776 48.7056 52 46.9615 52 45.1428V19.7499C52 19.6646 51.9661 19.5829 51.9059 19.5226C51.8456 19.4623 51.7638 19.4285 51.6786 19.4285H4.32143C4.23618 19.4285 4.15442 19.4623 4.09414 19.5226C4.03386 19.5829 4 19.6646 4 19.7499V45.1428ZM40.8571 22.857C41.3657 22.857 41.8629 23.0079 42.2858 23.2904C42.7086 23.573 43.0382 23.9746 43.2328 24.4444C43.4275 24.9143 43.4784 25.4313 43.3792 25.9301C43.2799 26.429 43.035 26.8871 42.6754 27.2468C42.3158 27.6064 41.8576 27.8513 41.3588 27.9505C40.86 28.0497 40.343 27.9988 39.8731 27.8042C39.4032 27.6096 39.0016 27.28 38.7191 26.8571C38.4365 26.4342 38.2857 25.9371 38.2857 25.4285C38.2857 24.7465 38.5566 24.0924 39.0389 23.6102C39.5211 23.128 40.1752 22.857 40.8571 22.857ZM40.8571 31.4285C41.3657 31.4285 41.8629 31.5793 42.2858 31.8619C42.7086 32.1444 43.0382 32.546 43.2328 33.0159C43.4275 33.4858 43.4784 34.0028 43.3792 34.5016C43.2799 35.0004 43.035 35.4586 42.6754 35.8182C42.3158 36.1778 41.8576 36.4228 41.3588 36.522C40.86 36.6212 40.343 36.5703 39.8731 36.3756C39.4032 36.181 39.0016 35.8514 38.7191 35.4286C38.4365 35.0057 38.2857 34.5085 38.2857 33.9999C38.2857 33.318 38.5566 32.6639 39.0389 32.1817C39.5211 31.6994 40.1752 31.4285 40.8571 31.4285ZM32.2857 22.857C32.7943 22.857 33.2915 23.0079 33.7143 23.2904C34.1372 23.573 34.4668 23.9746 34.6614 24.4444C34.856 24.9143 34.907 25.4313 34.8077 25.9301C34.7085 26.429 34.4636 26.8871 34.104 27.2468C33.7444 27.6064 33.2862 27.8513 32.7874 27.9505C32.2886 28.0497 31.7715 27.9988 31.3017 27.8042C30.8318 27.6096 30.4302 27.28 30.1477 26.8571C29.8651 26.4342 29.7143 25.9371 29.7143 25.4285C29.7143 24.7465 29.9852 24.0924 30.4674 23.6102C30.9497 23.128 31.6037 22.857 32.2857 22.857ZM32.2857 31.4285C32.7943 31.4285 33.2915 31.5793 33.7143 31.8619C34.1372 32.1444 34.4668 32.546 34.6614 33.0159C34.856 33.4858 34.907 34.0028 34.8077 34.5016C34.7085 35.0004 34.4636 35.4586 34.104 35.8182C33.7444 36.1778 33.2862 36.4228 32.7874 36.522C32.2886 36.6212 31.7715 36.5703 31.3017 36.3756C30.8318 36.181 30.4302 35.8514 30.1477 35.4286C29.8651 35.0057 29.7143 34.5085 29.7143 33.9999C29.7143 33.318 29.9852 32.6639 30.4674 32.1817C30.9497 31.6994 31.6037 31.4285 32.2857 31.4285ZM32.2857 40C32.7943 40 33.2915 40.1508 33.7143 40.4333C34.1372 40.7159 34.4668 41.1175 34.6614 41.5874C34.856 42.0572 34.907 42.5742 34.8077 43.0731C34.7085 43.5719 34.4636 44.0301 34.104 44.3897C33.7444 44.7493 33.2862 44.9942 32.7874 45.0934C32.2886 45.1926 31.7715 45.1417 31.3017 44.9471C30.8318 44.7525 30.4302 44.4229 30.1477 44C29.8651 43.5771 29.7143 43.08 29.7143 42.5714C29.7143 41.8894 29.9852 41.2354 30.4674 40.7531C30.9497 40.2709 31.6037 40 32.2857 40ZM23.7143 31.4285C24.2229 31.4285 24.72 31.5793 25.1429 31.8619C25.5658 32.1444 25.8954 32.546 26.09 33.0159C26.2846 33.4858 26.3355 34.0028 26.2363 34.5016C26.1371 35.0004 25.8922 35.4586 25.5326 35.8182C25.1729 36.1778 24.7148 36.4228 24.2159 36.522C23.7171 36.6212 23.2001 36.5703 22.7302 36.3756C22.2604 36.181 21.8588 35.8514 21.5762 35.4286C21.2937 35.0057 21.1429 34.5085 21.1429 33.9999C21.1429 33.318 21.4138 32.6639 21.896 32.1817C22.3782 31.6994 23.0323 31.4285 23.7143 31.4285ZM23.7143 40C24.2229 40 24.72 40.1508 25.1429 40.4333C25.5658 40.7159 25.8954 41.1175 26.09 41.5874C26.2846 42.0572 26.3355 42.5742 26.2363 43.0731C26.1371 43.5719 25.8922 44.0301 25.5326 44.3897C25.1729 44.7493 24.7148 44.9942 24.2159 45.0934C23.7171 45.1926 23.2001 45.1417 22.7302 44.9471C22.2604 44.7525 21.8588 44.4229 21.5762 44C21.2937 43.5771 21.1429 43.08 21.1429 42.5714C21.1429 41.8894 21.4138 41.2354 21.896 40.7531C22.3782 40.2709 23.0323 40 23.7143 40ZM15.1429 31.4285C15.6514 31.4285 16.1486 31.5793 16.5715 31.8619C16.9943 32.1444 17.3239 32.546 17.5185 33.0159C17.7132 33.4858 17.7641 34.0028 17.6649 34.5016C17.5657 35.0004 17.3208 35.4586 16.9611 35.8182C16.6015 36.1778 16.1433 36.4228 15.6445 36.522C15.1457 36.6212 14.6287 36.5703 14.1588 36.3756C13.6889 36.181 13.2873 35.8514 13.0048 35.4286C12.7222 35.0057 12.5714 34.5085 12.5714 33.9999C12.5714 33.318 12.8423 32.6639 13.3246 32.1817C13.8068 31.6994 14.4609 31.4285 15.1429 31.4285ZM15.1429 40C15.6514 40 16.1486 40.1508 16.5715 40.4333C16.9943 40.7159 17.3239 41.1175 17.5185 41.5874C17.7132 42.0572 17.7641 42.5742 17.6649 43.0731C17.5657 43.5719 17.3208 44.0301 16.9611 44.3897C16.6015 44.7493 16.1433 44.9942 15.6445 45.0934C15.1457 45.1926 14.6287 45.1417 14.1588 44.9471C13.6889 44.7525 13.2873 44.4229 13.0048 44C12.7222 43.5771 12.5714 43.08 12.5714 42.5714C12.5714 41.8894 12.8423 41.2354 13.3246 40.7531C13.8068 40.2709 14.4609 40 15.1429 40Z" fill="url(#paint0_linear_238_380)"/>
</g>
<defs>
<filter id="filter0_ii_238_380" x="4" y="4" width="48" height="49" filterUnits="userSpaceOnUse" color-interpolation-filters="sRGB">
<feFlood flood-opacity="0" result="BackgroundImageFix"/>
<feBlend mode="normal" in="SourceGraphic" in2="BackgroundImageFix" result="shape"/>
<feColorMatrix in="SourceAlpha" type="matrix" values="0 0 0 0 0 0 0 0 0 0 0 0 0 0 0 0 0 0 127 0" result="hardAlpha"/>
<feOffset/>
<feGaussianBlur stdDeviation="0.5"/>
<feComposite in2="hardAlpha" operator="arithmetic" k2="-1" k3="1"/>
<feColorMatrix type="matrix" values="0 0 0 0 0.16226 0 0 0 0 0.1875 0 0 0 0 0.184523 0 0 0 0.5 0"/>
<feBlend mode="normal" in2="shape" result="effect1_innerShadow_238_380"/>
<feColorMatrix in="SourceAlpha" type="matrix" values="0 0 0 0 0 0 0 0 0 0 0 0 0 0 0 0 0 0 127 0" result="hardAlpha"/>
<feOffset dy="1"/>
<feGaussianBlur stdDeviation="0.5"/>
<feComposite in2="hardAlpha" operator="arithmetic" k2="-1" k3="1"/>
<feColorMatrix type="matrix" values="0 0 0 0 0 0 0 0 0 0 0 0 0 0 0 0 0 0 0.25 0"/>
<feBlend mode="normal" in2="effect1_innerShadow_238_380" result="effect2_innerShadow_238_380"/>
</filter>
<linearGradient id="paint0_linear_238_380" x1="4" y1="28" x2="52" y2="28" gradientUnits="userSpaceOnUse">
<stop stop-color="#48E3D6"/>
<stop offset="1" stop-color="#C83ECA"/>
</linearGradient>
</defs>
</svg>
