<svg width="56" height="56" viewBox="0 0 56 56" fill="none" xmlns="http://www.w3.org/2000/svg">
<g filter="url(#filter0_ii_234_372)">
<path fill-rule="evenodd" clip-rule="evenodd" d="M7.5136 7.5136C4 11.032 4 16.6864 4 28C4 39.3136 4 44.9704 7.5136 48.484C11.032 52 16.6864 52 28 52C39.3136 52 44.9704 52 48.484 48.484C52 44.9728 52 39.3136 52 28C52 16.6864 52 11.0296 48.484 7.5136C44.9728 4 39.3136 4 28 4C16.6864 4 11.0296 4 7.5136 7.5136ZM24.5056 17.2408C24.6685 17.0695 24.7962 16.8678 24.8811 16.6472C24.9661 16.4266 25.0068 16.1914 25.0009 15.955C24.995 15.7187 24.9426 15.4858 24.8467 15.2697C24.7508 15.0536 24.6133 14.8585 24.442 14.6956C24.2707 14.5327 24.069 14.405 23.8484 14.3201C23.6278 14.2351 23.3926 14.1944 23.1562 14.2003C22.9199 14.2062 22.687 14.2586 22.4709 14.3545C22.2548 14.4504 22.0597 14.5879 21.8968 14.7592L16.3432 20.5912L14.9032 19.0792C14.742 18.9011 14.5468 18.757 14.3291 18.6555C14.1114 18.554 13.8755 18.4971 13.6355 18.4882C13.3954 18.4792 13.156 18.5184 12.9313 18.6035C12.7067 18.6885 12.5013 18.8177 12.3273 18.9833C12.1533 19.149 12.0143 19.3478 11.9183 19.568C11.8224 19.7882 11.7715 20.0254 11.7686 20.2656C11.7658 20.5058 11.8111 20.7442 11.9018 20.9666C11.9925 21.189 12.1268 21.3911 12.2968 21.5608L15.04 24.4408C15.2081 24.6172 15.4103 24.7577 15.6343 24.8537C15.8583 24.9497 16.0995 24.9992 16.3432 24.9992C16.5869 24.9992 16.8281 24.9497 17.0521 24.8537C17.2761 24.7577 17.4783 24.6172 17.6464 24.4408L24.5056 17.2408ZM30.4 19C29.9226 19 29.4648 19.1896 29.1272 19.5272C28.7896 19.8648 28.6 20.3226 28.6 20.8C28.6 21.2774 28.7896 21.7352 29.1272 22.0728C29.4648 22.4104 29.9226 22.6 30.4 22.6H42.4C42.8774 22.6 43.3352 22.4104 43.6728 22.0728C44.0104 21.7352 44.2 21.2774 44.2 20.8C44.2 20.3226 44.0104 19.8648 43.6728 19.5272C43.3352 19.1896 42.8774 19 42.4 19H30.4ZM24.5032 34.0408C24.6732 33.8711 24.8075 33.6691 24.8982 33.4466C24.9889 33.2242 25.0342 32.9858 25.0314 32.7456C25.0285 32.5054 24.9776 32.2682 24.8817 32.048C24.7857 31.8278 24.6467 31.629 24.4727 31.4633C24.2987 31.2977 24.0933 31.1685 23.8687 31.0835C23.644 30.9984 23.4046 30.9592 23.1645 30.9682C22.9245 30.9771 22.6886 31.034 22.4709 31.1355C22.2532 31.237 22.058 31.3811 21.8968 31.5592L16.3432 37.3912L14.9032 35.8792C14.742 35.7011 14.5468 35.557 14.3291 35.4555C14.1114 35.354 13.8755 35.2971 13.6355 35.2882C13.3954 35.2792 13.156 35.3184 12.9313 35.4035C12.7067 35.4885 12.5013 35.6177 12.3273 35.7833C12.1533 35.949 12.0143 36.1478 11.9183 36.368C11.8224 36.5882 11.7715 36.8254 11.7686 37.0656C11.7658 37.3058 11.8111 37.5442 11.9018 37.7666C11.9925 37.9891 12.1268 38.1911 12.2968 38.3608L15.04 41.2408C15.2081 41.4172 15.4103 41.5577 15.6343 41.6537C15.8583 41.7497 16.0995 41.7992 16.3432 41.7992C16.5869 41.7992 16.8281 41.7497 17.0521 41.6537C17.2761 41.5577 17.4783 41.4172 17.6464 41.2408L24.5032 34.0408ZM30.4 35.8C29.9226 35.8 29.4648 35.9896 29.1272 36.3272C28.7896 36.6648 28.6 37.1226 28.6 37.6C28.6 38.0774 28.7896 38.5352 29.1272 38.8728C29.4648 39.2104 29.9226 39.4 30.4 39.4H42.4C42.8774 39.4 43.3352 39.2104 43.6728 38.8728C44.0104 38.5352 44.2 38.0774 44.2 37.6C44.2 37.1226 44.0104 36.6648 43.6728 36.3272C43.3352 35.9896 42.8774 35.8 42.4 35.8H30.4Z" fill="url(#paint0_linear_234_372)"/>
</g>
<defs>
<filter id="filter0_ii_234_372" x="4" y="4" width="48" height="49" filterUnits="userSpaceOnUse" color-interpolation-filters="sRGB">
<feFlood flood-opacity="0" result="BackgroundImageFix"/>
<feBlend mode="normal" in="SourceGraphic" in2="BackgroundImageFix" result="shape"/>
<feColorMatrix in="SourceAlpha" type="matrix" values="0 0 0 0 0 0 0 0 0 0 0 0 0 0 0 0 0 0 127 0" result="hardAlpha"/>
<feOffset/>
<feGaussianBlur stdDeviation="0.5"/>
<feComposite in2="hardAlpha" operator="arithmetic" k2="-1" k3="1"/>
<feColorMatrix type="matrix" values="0 0 0 0 0.16226 0 0 0 0 0.1875 0 0 0 0 0.184523 0 0 0 0.5 0"/>
<feBlend mode="normal" in2="shape" result="effect1_innerShadow_234_372"/>
<feColorMatrix in="SourceAlpha" type="matrix" values="0 0 0 0 0 0 0 0 0 0 0 0 0 0 0 0 0 0 127 0" result="hardAlpha"/>
<feOffset dy="1"/>
<feGaussianBlur stdDeviation="0.5"/>
<feComposite in2="hardAlpha" operator="arithmetic" k2="-1" k3="1"/>
<feColorMatrix type="matrix" values="0 0 0 0 0 0 0 0 0 0 0 0 0 0 0 0 0 0 0.25 0"/>
<feBlend mode="normal" in2="effect1_innerShadow_234_372" result="effect2_innerShadow_234_372"/>
</filter>
<linearGradient id="paint0_linear_234_372" x1="4" y1="28" x2="52" y2="28" gradientUnits="userSpaceOnUse">
<stop stop-color="#48E3D6"/>
<stop offset="1" stop-color="#C83ECA"/>
</linearGradient>
</defs>
</svg>
