<svg width="56" height="56" viewBox="0 0 56 56" fill="none" xmlns="http://www.w3.org/2000/svg">
<g filter="url(#filter0_ii_150_49484)">
<path d="M29.0664 5.36678C29.3066 5.43284 29.5273 5.55585 29.7099 5.72537C31.3644 7.24258 32.5095 9.23406 32.9885 11.4272C33.4675 13.6203 33.257 15.9079 32.3858 17.9768C30.7307 21.8674 26.9711 24.4266 22.8093 24.5934L15.44 41.9164C14.4329 44.284 11.6865 45.391 9.31898 44.3839C6.95141 43.3767 5.84434 40.6304 6.85151 38.2628L14.2207 20.9398C11.4545 17.8258 10.6909 13.3424 12.3459 9.45179C13.2322 7.3893 14.7342 5.65114 16.6464 4.47524C18.5586 3.29934 20.7875 2.74318 23.028 2.88289C23.2762 2.89821 23.517 2.97279 23.7304 3.10037C23.9438 3.22794 24.1235 3.40481 24.2544 3.61614C24.3854 3.82747 24.4638 4.06711 24.483 4.31497C24.5023 4.56284 24.4619 4.81171 24.3651 5.04074L22.1535 10.2397C21.992 10.6193 21.9879 11.0475 22.1422 11.4302C22.2964 11.8128 22.5964 12.1185 22.976 12.28C23.7633 12.6149 24.6814 12.2448 25.0164 11.4575L27.228 6.25859C27.3248 6.02906 27.4755 5.82625 27.6674 5.66736C27.8592 5.50847 28.0866 5.39819 28.3301 5.34587C28.5737 5.29354 28.8262 5.30071 29.0664 5.36678Z" fill="url(#paint0_linear_150_49484)"/>
<path d="M42.1781 34.6958L43.6038 35.3023C43.9834 35.4638 44.2834 35.7694 44.4376 36.1521C44.5918 36.5347 44.5878 36.963 44.4263 37.3426L39.5549 48.794C37.8754 52.7418 33.301 54.5858 29.3531 52.9064C25.4053 51.227 23.5612 46.6525 25.2407 42.7047L30.1121 31.2533C30.2736 30.8737 30.5793 30.5738 30.9619 30.4195C31.3446 30.2653 31.7728 30.2693 32.1524 30.4308L33.5839 31.0398L38.3116 19.9262L38.1219 16.8196C38.1093 16.6156 38.1371 16.411 38.2037 16.2178C38.2703 16.0245 38.3743 15.8462 38.5098 15.6931L41.768 12.0078C41.9844 11.7628 42.2725 11.5923 42.5914 11.5204C42.9103 11.4485 43.2437 11.4789 43.5443 11.6072L49.27 14.0429C49.571 14.1705 49.8241 14.3896 49.9934 14.6692C50.1628 14.9488 50.2397 15.2747 50.2134 15.6005L49.818 20.5036C49.8017 20.7074 49.7454 20.906 49.6523 21.088C49.5592 21.27 49.4312 21.4319 49.2755 21.5644L46.9058 23.5822L42.1781 34.6958Z" fill="url(#paint1_linear_150_49484)"/>
</g>
<defs>
<filter id="filter0_ii_150_49484" x="6.47925" y="2.86182" width="43.7393" height="51.6655" filterUnits="userSpaceOnUse" color-interpolation-filters="sRGB">
<feFlood flood-opacity="0" result="BackgroundImageFix"/>
<feBlend mode="normal" in="SourceGraphic" in2="BackgroundImageFix" result="shape"/>
<feColorMatrix in="SourceAlpha" type="matrix" values="0 0 0 0 0 0 0 0 0 0 0 0 0 0 0 0 0 0 127 0" result="hardAlpha"/>
<feOffset/>
<feGaussianBlur stdDeviation="0.5"/>
<feComposite in2="hardAlpha" operator="arithmetic" k2="-1" k3="1"/>
<feColorMatrix type="matrix" values="0 0 0 0 0.16226 0 0 0 0 0.1875 0 0 0 0 0.184523 0 0 0 0.5 0"/>
<feBlend mode="normal" in2="shape" result="effect1_innerShadow_150_49484"/>
<feColorMatrix in="SourceAlpha" type="matrix" values="0 0 0 0 0 0 0 0 0 0 0 0 0 0 0 0 0 0 127 0" result="hardAlpha"/>
<feOffset dy="1"/>
<feGaussianBlur stdDeviation="0.5"/>
<feComposite in2="hardAlpha" operator="arithmetic" k2="-1" k3="1"/>
<feColorMatrix type="matrix" values="0 0 0 0 0 0 0 0 0 0 0 0 0 0 0 0 0 0 0.25 0"/>
<feBlend mode="normal" in2="effect1_innerShadow_150_49484" result="effect2_innerShadow_150_49484"/>
</filter>
<linearGradient id="paint0_linear_150_49484" x1="7.84203" y1="20.0392" x2="45.0532" y2="35.8689" gradientUnits="userSpaceOnUse">
<stop stop-color="#48E3D6"/>
<stop offset="1" stop-color="#C83ECA"/>
</linearGradient>
<linearGradient id="paint1_linear_150_49484" x1="7.84203" y1="20.0392" x2="45.0532" y2="35.8689" gradientUnits="userSpaceOnUse">
<stop stop-color="#48E3D6"/>
<stop offset="1" stop-color="#C83ECA"/>
</linearGradient>
</defs>
</svg>
