<svg width="32" height="32" viewBox="0 0 32 32" fill="none" xmlns="http://www.w3.org/2000/svg">
<g filter="url(#filter0_ii_156_50068)">
<path d="M24.5495 7.50125C19.8696 2.83292 12.1898 2.83292 7.50992 7.50125C2.83003 12.1696 2.83003 19.8304 7.50992 24.4988C12.1898 29.1671 19.7496 29.1671 24.4295 24.4988C29.1094 19.8304 29.2294 12.1696 24.5495 7.50125ZM20.0959 20.3229C19.7055 20.7123 19.0737 20.7123 18.6834 20.3229L16.7359 18.3803C16.3456 17.9909 15.7138 17.9909 15.3235 18.3803L13.376 20.3229C12.9857 20.7123 12.3539 20.7123 11.9636 20.3229L11.6996 20.0596C11.3079 19.6689 11.3079 19.0344 11.6996 18.6436L13.64 16.708C14.0317 16.3173 14.0317 15.6827 13.64 15.292L11.6996 13.3564C11.3079 12.9656 11.3079 12.3311 11.6996 11.9404L11.9636 11.6771C12.3539 11.2877 12.9857 11.2877 13.376 11.6771L15.3235 13.6197C15.7138 14.0091 16.3456 14.0091 16.7359 13.6197L18.6834 11.6771C19.0737 11.2877 19.7055 11.2877 20.0959 11.6771L20.3599 11.9404C20.7515 12.3311 20.7515 12.9656 20.3599 13.3564L18.4194 15.292C18.0277 15.6827 18.0277 16.3173 18.4194 16.708L20.3599 18.6436C20.7515 19.0344 20.7515 19.6689 20.3599 20.0596L20.0959 20.3229Z" fill="white"/>
</g>
<defs>
<filter id="filter0_ii_156_50068" x="4" y="4" width="24" height="25" filterUnits="userSpaceOnUse" color-interpolation-filters="sRGB">
<feFlood flood-opacity="0" result="BackgroundImageFix"/>
<feBlend mode="normal" in="SourceGraphic" in2="BackgroundImageFix" result="shape"/>
<feColorMatrix in="SourceAlpha" type="matrix" values="0 0 0 0 0 0 0 0 0 0 0 0 0 0 0 0 0 0 127 0" result="hardAlpha"/>
<feOffset/>
<feGaussianBlur stdDeviation="0.5"/>
<feComposite in2="hardAlpha" operator="arithmetic" k2="-1" k3="1"/>
<feColorMatrix type="matrix" values="0 0 0 0 0.16226 0 0 0 0 0.1875 0 0 0 0 0.184523 0 0 0 0.5 0"/>
<feBlend mode="normal" in2="shape" result="effect1_innerShadow_156_50068"/>
<feColorMatrix in="SourceAlpha" type="matrix" values="0 0 0 0 0 0 0 0 0 0 0 0 0 0 0 0 0 0 127 0" result="hardAlpha"/>
<feOffset dy="1"/>
<feGaussianBlur stdDeviation="0.5"/>
<feComposite in2="hardAlpha" operator="arithmetic" k2="-1" k3="1"/>
<feColorMatrix type="matrix" values="0 0 0 0 0 0 0 0 0 0 0 0 0 0 0 0 0 0 0.25 0"/>
<feBlend mode="normal" in2="effect1_innerShadow_156_50068" result="effect2_innerShadow_156_50068"/>
</filter>
</defs>
</svg>
