<svg width="56" height="56" viewBox="0 0 56 56" fill="none" xmlns="http://www.w3.org/2000/svg">
<g filter="url(#filter0_ii_238_376)">
<path d="M22.0023 19.3216C23.4676 18.6643 25.092 18.4421 26.6808 18.6808C28.2696 18.9195 30.0868 19.3912 31.2927 20.4498C32.4986 21.5084 32.5467 21.7001 33.0483 23.2004C33.4636 24.4426 33.8006 27.5048 33.8006 28.7015C33.79 28.7076 32.3882 29.5088 32.2959 30.4519C32.0925 31.1996 32.8902 31.7557 33.8006 32.7024V35.2566C33.8006 36.4533 33.7943 37.5705 32.5153 39.8596C32.2059 40.5076 31.3269 40.4658 30.6593 40.4657H21.9293L15.5384 50.4786C15.3234 50.8371 15.0382 51.1489 14.7003 51.3958C14.3622 51.6427 13.978 51.8196 13.5702 51.9159C13.1624 52.0122 12.7392 52.0259 12.326 51.9564C11.9129 51.887 11.518 51.7357 11.1646 51.5115C10.8111 51.2872 10.5058 50.9943 10.2677 50.6505C10.0297 50.3068 9.86303 49.919 9.77785 49.5101C9.69266 49.1011 9.69081 48.679 9.77197 48.2691C9.85315 47.8592 10.0158 47.4695 10.2505 47.1234L13.2102 42.6498C13.4008 42.3618 13.4686 42.0101 13.3992 41.672C13.3299 41.334 13.1286 41.0372 12.8398 40.8472C12.5511 40.6572 12.1986 40.589 11.8597 40.6581C11.5207 40.7273 11.223 40.928 11.0323 41.2159L8.04577 45.7251C7.53485 46.5256 7.23104 47.4405 7.1621 48.3868C7.0932 49.333 7.26102 50.2816 7.65047 51.1472C7.08384 51.645 6.35617 51.9221 5.60097 51.9276C4.84574 51.9331 4.11409 51.6665 3.54021 51.177C2.96637 50.6875 2.58871 50.0082 2.47725 49.2635C2.36583 48.5187 2.52769 47.7586 2.9333 47.1234L8.51357 38.3823H22.2992C23.6849 38.3823 25.0142 37.833 25.994 36.8561C26.9738 35.8791 27.5243 34.5542 27.5243 33.1727C27.5243 31.7911 26.9738 30.4662 25.994 29.4893C25.0142 28.5123 23.6849 27.9631 22.2992 27.9631H19.944L18.4289 22.4248L18.4182 22.3872C19.2928 21.0434 20.5371 19.9789 22.0023 19.3216Z" fill="url(#paint0_linear_238_376)"/>
<path d="M41.2668 22.0903C41.4442 22.0811 41.6212 22.1169 41.7807 22.1948L43.2708 27.3077H45.766L49.2522 22.7012C49.4117 22.6233 49.5887 22.5871 49.766 22.5962C49.9433 22.6054 50.1152 22.6597 50.2657 22.7535C50.4162 22.8473 50.5408 22.9776 50.6267 23.1325C50.7126 23.2874 50.7573 23.4619 50.757 23.6389V32.19C50.757 33.8987 50.2575 35.3617 49.2605 36.3369L53.7519 42.682C54.5001 43.9031 55 45.3679 55 46.8328V47.0765C55 49.7603 52.7531 51.9568 50.009 51.9569H36.1896C35.6353 51.9569 35.1037 51.7372 34.7118 51.3464C34.3198 50.9557 34.0995 50.4256 34.0995 49.873C34.0995 49.3204 34.3198 48.7903 34.7118 48.3995C35.1037 48.0088 35.6353 47.7891 36.1896 47.789H40.2759V36.8263C39.9466 36.504 39.6522 36.1477 39.3971 35.7665C39.3164 35.7296 39.2383 35.6818 39.1659 35.6209L34.3934 31.6074C33.6832 31.0102 34.0983 29.8541 35.0272 29.8424L38.8068 29.7955L40.2759 23.1325C40.2755 22.9555 40.3203 22.7814 40.4062 22.6265C40.4921 22.4716 40.6161 22.3409 40.7667 22.247C40.9173 22.1532 41.0895 22.0994 41.2668 22.0903Z" fill="url(#paint1_linear_238_376)"/>
<path d="M13.3875 21.7118C13.8461 21.7117 14.2922 21.8621 14.6567 22.1396C15.0211 22.4171 15.284 22.8066 15.4047 23.2477L17.5487 31.0887H22.2992C22.8534 31.0887 23.3851 31.3085 23.777 31.6992C24.169 32.09 24.3893 32.62 24.3893 33.1727C24.3893 33.7253 24.169 34.2553 23.777 34.6461C23.3851 35.0368 22.8534 35.2566 22.2992 35.2566H5.57942C5.02513 35.2566 4.49351 35.0369 4.10157 34.6461C3.70963 34.2554 3.48927 33.7253 3.48927 33.1727L1.07337 24.3437C0.98882 24.0344 0.977283 23.7098 1.03908 23.3952C1.10089 23.0806 1.23463 22.7844 1.42997 22.5298C1.62532 22.2752 1.87688 22.069 2.16523 21.9271C2.4536 21.7853 2.77094 21.7114 3.0925 21.7118H13.3875Z" fill="url(#paint2_linear_238_376)"/>
<path d="M25.4342 4C27.0971 4 28.6919 4.65862 29.8677 5.83095C31.0436 7.0033 31.7041 8.59337 31.7041 10.2513C31.7041 11.9092 31.0435 13.4994 29.8677 14.6717C28.6919 15.8439 27.097 16.5026 25.4342 16.5026C23.7713 16.5026 22.1764 15.844 21.0006 14.6717C19.8248 13.4994 19.1642 11.9092 19.1642 10.2513C19.1642 8.59346 19.8249 7.00329 21.0006 5.83095C22.1764 4.65865 23.7713 4.00005 25.4342 4Z" fill="url(#paint3_linear_238_376)"/>
</g>
<defs>
<filter id="filter0_ii_238_376" x="1" y="4" width="54" height="49" filterUnits="userSpaceOnUse" color-interpolation-filters="sRGB">
<feFlood flood-opacity="0" result="BackgroundImageFix"/>
<feBlend mode="normal" in="SourceGraphic" in2="BackgroundImageFix" result="shape"/>
<feColorMatrix in="SourceAlpha" type="matrix" values="0 0 0 0 0 0 0 0 0 0 0 0 0 0 0 0 0 0 127 0" result="hardAlpha"/>
<feOffset/>
<feGaussianBlur stdDeviation="0.5"/>
<feComposite in2="hardAlpha" operator="arithmetic" k2="-1" k3="1"/>
<feColorMatrix type="matrix" values="0 0 0 0 0.16226 0 0 0 0 0.1875 0 0 0 0 0.184523 0 0 0 0.5 0"/>
<feBlend mode="normal" in2="shape" result="effect1_innerShadow_238_376"/>
<feColorMatrix in="SourceAlpha" type="matrix" values="0 0 0 0 0 0 0 0 0 0 0 0 0 0 0 0 0 0 127 0" result="hardAlpha"/>
<feOffset dy="1"/>
<feGaussianBlur stdDeviation="0.5"/>
<feComposite in2="hardAlpha" operator="arithmetic" k2="-1" k3="1"/>
<feColorMatrix type="matrix" values="0 0 0 0 0 0 0 0 0 0 0 0 0 0 0 0 0 0 0.25 0"/>
<feBlend mode="normal" in2="effect1_innerShadow_238_376" result="effect2_innerShadow_238_376"/>
</filter>
<linearGradient id="paint0_linear_238_376" x1="1" y1="28" x2="55" y2="28" gradientUnits="userSpaceOnUse">
<stop stop-color="#48E3D6"/>
<stop offset="1" stop-color="#C83ECA"/>
</linearGradient>
<linearGradient id="paint1_linear_238_376" x1="1" y1="28" x2="55" y2="28" gradientUnits="userSpaceOnUse">
<stop stop-color="#48E3D6"/>
<stop offset="1" stop-color="#C83ECA"/>
</linearGradient>
<linearGradient id="paint2_linear_238_376" x1="1" y1="28" x2="55" y2="28" gradientUnits="userSpaceOnUse">
<stop stop-color="#48E3D6"/>
<stop offset="1" stop-color="#C83ECA"/>
</linearGradient>
<linearGradient id="paint3_linear_238_376" x1="1" y1="28" x2="55" y2="28" gradientUnits="userSpaceOnUse">
<stop stop-color="#48E3D6"/>
<stop offset="1" stop-color="#C83ECA"/>
</linearGradient>
</defs>
</svg>
