<svg width="48" height="48" viewBox="0 0 48 48" fill="none" xmlns="http://www.w3.org/2000/svg">
<g filter="url(#filter0_ii_156_49984)">
<path fill-rule="evenodd" clip-rule="evenodd" d="M43.9995 40.8359C39.1062 34.8625 34.7608 31.4732 30.9635 30.6679C27.1662 29.8625 23.5508 29.7409 20.1175 30.3029V40.9999L3.99949 23.5449L20.1175 6.99987V17.1669C26.4662 17.2169 31.8635 19.4945 36.3095 23.9999C40.7542 28.5052 43.3175 34.1172 43.9995 40.8359Z" fill="url(#paint0_linear_156_49984)"/>
<path d="M20.8706 5.14733C20.1168 4.84092 19.2528 5.02156 18.685 5.60436L2.56687 22.1493C1.82492 22.9109 1.80868 24.1199 2.52976 24.9012L18.6479 42.3563C19.2066 42.9613 20.0793 43.1621 20.8462 42.8622C21.6129 42.5622 22.1177 41.8232 22.1177 40.9999V32.0633C24.7852 31.8169 27.5923 31.997 30.5483 32.6239C33.6343 33.2784 37.6065 36.1877 42.4526 42.1034C43.0118 42.7858 43.9523 43.021 44.7671 42.6825C45.5817 42.3439 46.0788 41.5114 45.9897 40.6337C45.265 33.4941 42.5201 27.4471 37.7329 22.5946C33.3838 18.1876 28.151 15.7292 22.1177 15.2518V6.99987C22.1177 6.18619 21.6243 5.4538 20.8706 5.14733ZM18.1177 17.1669C18.1177 18.2653 19.0036 19.1582 20.102 19.1669C25.9228 19.2128 30.8135 21.2781 34.8862 25.4051L34.8872 25.4042C37.3556 27.9065 39.1996 30.7792 40.4175 34.0419C37.3139 31.1768 34.302 29.3318 31.3784 28.7118C27.3663 27.8609 23.4994 27.7225 19.7944 28.329C18.8275 28.4872 18.1178 29.3228 18.1177 30.3026V35.8866L6.75632 23.5809L18.1177 11.9188V17.1669Z" fill="url(#paint1_linear_156_49984)"/>
</g>
<defs>
<filter id="filter0_ii_156_49984" x="1.99951" y="5" width="44.0005" height="38.9995" filterUnits="userSpaceOnUse" color-interpolation-filters="sRGB">
<feFlood flood-opacity="0" result="BackgroundImageFix"/>
<feBlend mode="normal" in="SourceGraphic" in2="BackgroundImageFix" result="shape"/>
<feColorMatrix in="SourceAlpha" type="matrix" values="0 0 0 0 0 0 0 0 0 0 0 0 0 0 0 0 0 0 127 0" result="hardAlpha"/>
<feOffset/>
<feGaussianBlur stdDeviation="0.5"/>
<feComposite in2="hardAlpha" operator="arithmetic" k2="-1" k3="1"/>
<feColorMatrix type="matrix" values="0 0 0 0 0.16226 0 0 0 0 0.1875 0 0 0 0 0.184523 0 0 0 0.5 0"/>
<feBlend mode="normal" in2="shape" result="effect1_innerShadow_156_49984"/>
<feColorMatrix in="SourceAlpha" type="matrix" values="0 0 0 0 0 0 0 0 0 0 0 0 0 0 0 0 0 0 127 0" result="hardAlpha"/>
<feOffset dy="1"/>
<feGaussianBlur stdDeviation="0.5"/>
<feComposite in2="hardAlpha" operator="arithmetic" k2="-1" k3="1"/>
<feColorMatrix type="matrix" values="0 0 0 0 0 0 0 0 0 0 0 0 0 0 0 0 0 0 0.25 0"/>
<feBlend mode="normal" in2="effect1_innerShadow_156_49984" result="effect2_innerShadow_156_49984"/>
</filter>
<linearGradient id="paint0_linear_156_49984" x1="46" y1="23.9998" x2="1.9995" y2="23.9998" gradientUnits="userSpaceOnUse">
<stop stop-color="#48E3D6"/>
<stop offset="1" stop-color="#C83ECA"/>
</linearGradient>
<linearGradient id="paint1_linear_156_49984" x1="46" y1="23.9998" x2="1.9995" y2="23.9998" gradientUnits="userSpaceOnUse">
<stop stop-color="#48E3D6"/>
<stop offset="1" stop-color="#C83ECA"/>
</linearGradient>
</defs>
</svg>
