<svg width="48" height="48" viewBox="0 0 48 48" fill="none" xmlns="http://www.w3.org/2000/svg">
<g filter="url(#filter0_ii_156_49993)">
<path fill-rule="evenodd" clip-rule="evenodd" d="M4.00002 40.8359C8.89336 34.8625 13.2387 31.4732 17.036 30.6679C20.8334 29.8625 24.4487 29.7409 27.882 30.3029V40.9999L44 23.5449L27.882 6.99987V17.1669C21.5334 17.2169 16.136 19.4945 11.69 23.9999C7.24536 28.5052 4.68202 34.1172 4.00002 40.8359Z" fill="url(#paint0_linear_156_49993)"/>
<path d="M27.1289 5.14733C27.8827 4.84092 28.7467 5.02156 29.3145 5.60436L45.4326 22.1493C46.1746 22.9109 46.1908 24.1199 45.4697 24.9012L29.3516 42.3563C28.793 42.9613 27.9202 43.1621 27.1533 42.8622C26.3866 42.5622 25.8819 41.8232 25.8819 40.9999V32.0633C23.2144 31.8169 20.4072 31.997 17.4512 32.6239C14.3652 33.2784 10.393 36.1877 5.5469 42.1034C4.98771 42.7858 4.04723 43.021 3.23245 42.6825C2.4178 42.3439 1.92069 41.5114 2.00979 40.6337C2.73455 33.4941 5.47942 27.4471 10.2666 22.5946C14.6157 18.1876 19.8485 15.7292 25.8819 15.2518V6.99987C25.8819 6.18619 26.3752 5.4538 27.1289 5.14733ZM29.8819 17.1669C29.8819 18.2653 28.9959 19.1582 27.8975 19.1669C22.0767 19.2128 17.186 21.2781 13.1133 25.4051L13.1123 25.4042C10.6439 27.9065 8.79994 30.7792 7.58206 34.0419C10.6856 31.1768 13.6975 29.3318 16.6211 28.7118C20.6332 27.8609 24.5001 27.7225 28.2051 28.329C29.172 28.4872 29.8817 29.3228 29.8819 30.3026V35.8866L41.2432 23.5809L29.8819 11.9188V17.1669Z" fill="url(#paint1_linear_156_49993)"/>
</g>
<defs>
<filter id="filter0_ii_156_49993" x="1.99951" y="5" width="44.0005" height="38.9995" filterUnits="userSpaceOnUse" color-interpolation-filters="sRGB">
<feFlood flood-opacity="0" result="BackgroundImageFix"/>
<feBlend mode="normal" in="SourceGraphic" in2="BackgroundImageFix" result="shape"/>
<feColorMatrix in="SourceAlpha" type="matrix" values="0 0 0 0 0 0 0 0 0 0 0 0 0 0 0 0 0 0 127 0" result="hardAlpha"/>
<feOffset/>
<feGaussianBlur stdDeviation="0.5"/>
<feComposite in2="hardAlpha" operator="arithmetic" k2="-1" k3="1"/>
<feColorMatrix type="matrix" values="0 0 0 0 0.16226 0 0 0 0 0.1875 0 0 0 0 0.184523 0 0 0 0.5 0"/>
<feBlend mode="normal" in2="shape" result="effect1_innerShadow_156_49993"/>
<feColorMatrix in="SourceAlpha" type="matrix" values="0 0 0 0 0 0 0 0 0 0 0 0 0 0 0 0 0 0 127 0" result="hardAlpha"/>
<feOffset dy="1"/>
<feGaussianBlur stdDeviation="0.5"/>
<feComposite in2="hardAlpha" operator="arithmetic" k2="-1" k3="1"/>
<feColorMatrix type="matrix" values="0 0 0 0 0 0 0 0 0 0 0 0 0 0 0 0 0 0 0.25 0"/>
<feBlend mode="normal" in2="effect1_innerShadow_156_49993" result="effect2_innerShadow_156_49993"/>
</filter>
<linearGradient id="paint0_linear_156_49993" x1="1.99951" y1="23.9998" x2="46" y2="23.9998" gradientUnits="userSpaceOnUse">
<stop stop-color="#48E3D6"/>
<stop offset="1" stop-color="#C83ECA"/>
</linearGradient>
<linearGradient id="paint1_linear_156_49993" x1="1.99951" y1="23.9998" x2="46" y2="23.9998" gradientUnits="userSpaceOnUse">
<stop stop-color="#48E3D6"/>
<stop offset="1" stop-color="#C83ECA"/>
</linearGradient>
</defs>
</svg>
