<svg width="56" height="56" viewBox="0 0 56 56" fill="none" xmlns="http://www.w3.org/2000/svg">
<g filter="url(#filter0_ii_234_374)">
<path d="M48.6292 7.40813C47.5444 6.32125 46.2536 5.46025 44.8321 4.87519C43.4105 4.29013 41.8864 3.99268 40.3485 4.00014H15.6989C12.5981 4.00648 9.62616 5.23739 7.43356 7.42344C5.24096 9.60948 4.00636 12.5726 4 15.6641V40.312C4.00633 43.4058 5.24016 46.3714 7.43208 48.5612C9.62399 50.7511 12.5959 51.9873 15.6989 52H30.9845C31.8752 51.9928 32.7586 51.8128 33.5843 51.472L33.9695 51.28L34.162 51.16C34.7622 50.8716 35.3079 50.4819 35.7748 50.008L50.2179 35.608C50.7066 35.128 51.1134 34.5664 51.4215 33.9521L51.6141 33.5441C51.6237 33.4481 51.7658 33.2561 51.7561 33.1601C52.0137 32.4497 52.0017 31.8017 51.9969 31.0481V15.8321C52.0332 14.274 51.7535 12.7247 51.1744 11.2771C50.5953 9.82952 49.7311 8.51352 48.6292 7.40813ZM23.0408 39.664H15.6026C15.1238 39.664 14.6646 39.4744 14.326 39.1368C13.9875 38.7993 13.7972 38.3414 13.7972 37.864C13.7972 37.3867 13.9875 36.9288 14.326 36.5913C14.6646 36.2537 15.1238 36.064 15.6026 36.064H23.0408C23.5197 36.064 23.9789 36.2537 24.3174 36.5913C24.656 36.9288 24.8462 37.3867 24.8462 37.864C24.8462 38.3414 24.656 38.7993 24.3174 39.1368C23.9789 39.4744 23.5197 39.664 23.0408 39.664ZM25.448 29.8001H15.5304C15.0516 29.8001 14.5924 29.6104 14.2538 29.2729C13.9152 28.9353 13.725 28.4775 13.725 28.0001C13.725 27.5227 13.9152 27.0648 14.2538 26.7273C14.5924 26.3897 15.0516 26.2001 15.5304 26.2001H25.448C25.9268 26.2001 26.386 26.3897 26.7246 26.7273C27.0632 27.0648 27.2534 27.5227 27.2534 28.0001C27.2534 28.4775 27.0632 28.9353 26.7246 29.2729C26.386 29.6104 25.9268 29.8001 25.448 29.8001ZM15.5304 19.9121C15.0516 19.9121 14.5924 19.7224 14.2538 19.3849C13.9152 19.0473 13.725 18.5895 13.725 18.1121C13.725 17.6347 13.9152 17.1769 14.2538 16.8393C14.5924 16.5017 15.0516 16.3121 15.5304 16.3121H37.7969C38.2757 16.3121 38.7349 16.5017 39.0735 16.8393C39.4121 17.1769 39.6023 17.6347 39.6023 18.1121C39.6023 18.5895 39.4121 19.0473 39.0735 19.3849C38.7349 19.7224 38.2757 19.9121 37.7969 19.9121H15.5304ZM34.2342 46.312L33.4158 39.712C33.3253 38.9024 33.4158 38.0828 33.6806 37.312C33.9432 36.5043 34.3974 35.7715 35.0045 35.176C35.6119 34.566 36.3537 34.1058 37.171 33.8321C37.9816 33.5498 38.8469 33.4595 39.6986 33.5681L46.3183 34.3841L34.2342 46.312Z" fill="url(#paint0_linear_234_374)" style=""/>
</g>
<defs>
<filter id="filter0_ii_234_374" x="4" y="4" width="48" height="49" filterUnits="userSpaceOnUse" color-interpolation-filters="sRGB">
<feFlood flood-opacity="0" result="BackgroundImageFix"/>
<feBlend mode="normal" in="SourceGraphic" in2="BackgroundImageFix" result="shape"/>
<feColorMatrix in="SourceAlpha" type="matrix" values="0 0 0 0 0 0 0 0 0 0 0 0 0 0 0 0 0 0 127 0" result="hardAlpha"/>
<feOffset/>
<feGaussianBlur stdDeviation="0.5"/>
<feComposite in2="hardAlpha" operator="arithmetic" k2="-1" k3="1"/>
<feColorMatrix type="matrix" values="0 0 0 0 0.16226 0 0 0 0 0.1875 0 0 0 0 0.184523 0 0 0 0.5 0"/>
<feBlend mode="normal" in2="shape" result="effect1_innerShadow_234_374"/>
<feColorMatrix in="SourceAlpha" type="matrix" values="0 0 0 0 0 0 0 0 0 0 0 0 0 0 0 0 0 0 127 0" result="hardAlpha"/>
<feOffset dy="1"/>
<feGaussianBlur stdDeviation="0.5"/>
<feComposite in2="hardAlpha" operator="arithmetic" k2="-1" k3="1"/>
<feColorMatrix type="matrix" values="0 0 0 0 0 0 0 0 0 0 0 0 0 0 0 0 0 0 0.25 0"/>
<feBlend mode="normal" in2="effect1_innerShadow_234_374" result="effect2_innerShadow_234_374"/>
</filter>
<linearGradient id="paint0_linear_234_374" x1="4" y1="28" x2="52" y2="28" gradientUnits="userSpaceOnUse">
<stop stop-color="#48E3D6" style="stop-color:#48E3D6;stop-color:color(display-p3 0.2822 0.8894 0.8388);stop-opacity:1;"/>
<stop offset="1" stop-color="#C83ECA" style="stop-color:#C83ECA;stop-color:color(display-p3 0.7841 0.2441 0.7933);stop-opacity:1;"/>
</linearGradient>
</defs>
</svg>
