<svg width="150" height="150" viewBox="0 0 150 150" fill="none" xmlns="http://www.w3.org/2000/svg">
<g filter="url(#filter0_ii_244_382)">
<path fill-rule="evenodd" clip-rule="evenodd" d="M97.8795 62.1907C98.156 62.6635 98.0006 63.2707 97.5311 63.5527L79.963 74.1032C79.4624 74.4038 79.3248 75.0675 79.6646 75.5424L126.925 141.591C128.633 143.98 128.079 147.302 125.687 149.009L125.227 149.302C123.039 150.55 120.258 150.087 118.593 148.199L118.256 147.773L79.2847 93.3111C78.7644 92.584 77.6243 92.853 77.4839 93.736L69.2514 145.515L69.1369 146.047C68.4925 148.478 66.2125 150.132 63.6973 149.992L63.1562 149.934C60.2509 149.473 58.2696 146.749 58.73 143.849L63.7689 112.156C63.9445 111.051 62.4513 110.535 61.9075 111.512L42.0116 147.264L41.7223 147.725C40.2826 149.789 37.5719 150.562 35.2568 149.57L34.7678 149.331C32.1961 147.905 31.2688 144.667 32.6972 142.1L64.3583 85.2073C64.8425 84.3372 63.8961 83.3711 63.0162 83.8375L48.3784 91.5951L47.8977 91.8589C42.8927 94.4451 36.6815 92.6837 33.8075 87.7708L27.419 76.8464C24.5463 71.9323 26.0646 65.6667 30.7818 62.5879L31.25 62.3013L80.3905 34.2408C80.8666 33.9689 81.4729 34.1311 81.7496 34.6045L97.8795 62.1907ZM61.1378 104.131C61.1247 104.155 61.1365 104.185 61.1627 104.194L63.7972 105.1L61.1931 104.11C61.1721 104.102 61.1485 104.111 61.1378 104.131Z" fill="url(#paint0_linear_244_382)"/>
<path fill-rule="evenodd" clip-rule="evenodd" d="M31.6964 93.8756C31.9755 94.3528 31.8143 94.966 31.3366 95.2444L13.1549 105.839L12.7658 106.038C10.9309 106.872 8.75022 106.298 7.56338 104.672L7.32615 104.308L0.581762 92.7729C-0.604311 90.7438 0.0807346 88.1388 2.11335 86.9545L20.2977 76.3602C20.7744 76.0825 21.3859 76.2433 21.6644 76.7195L31.6964 93.8756Z" fill="url(#paint1_linear_244_382)"/>
<path fill-rule="evenodd" clip-rule="evenodd" d="M120.26 1.45139C125.342 -1.50874 131.867 0.203068 134.833 5.27567L148.546 28.7282C151.511 33.8007 149.796 40.3143 144.715 43.2754L115.197 60.4753L114.716 60.7391C109.711 63.326 103.498 61.5644 100.624 56.6511L86.9104 33.1985C84.0371 28.2845 85.5561 22.0192 90.2732 18.94L90.7414 18.6513L120.26 1.45139Z" fill="url(#paint2_linear_244_382)"/>
</g>
<defs>
<filter id="filter0_ii_244_382" x="0" y="0" width="150" height="154" filterUnits="userSpaceOnUse" color-interpolation-filters="sRGB">
<feFlood flood-opacity="0" result="BackgroundImageFix"/>
<feBlend mode="normal" in="SourceGraphic" in2="BackgroundImageFix" result="shape"/>
<feColorMatrix in="SourceAlpha" type="matrix" values="0 0 0 0 0 0 0 0 0 0 0 0 0 0 0 0 0 0 127 0" result="hardAlpha"/>
<feOffset/>
<feGaussianBlur stdDeviation="1.5"/>
<feComposite in2="hardAlpha" operator="arithmetic" k2="-1" k3="1"/>
<feColorMatrix type="matrix" values="0 0 0 0 0.16226 0 0 0 0 0.1875 0 0 0 0 0.184523 0 0 0 0.5 0"/>
<feBlend mode="normal" in2="shape" result="effect1_innerShadow_244_382"/>
<feColorMatrix in="SourceAlpha" type="matrix" values="0 0 0 0 0 0 0 0 0 0 0 0 0 0 0 0 0 0 127 0" result="hardAlpha"/>
<feOffset dy="4"/>
<feGaussianBlur stdDeviation="2"/>
<feComposite in2="hardAlpha" operator="arithmetic" k2="-1" k3="1"/>
<feColorMatrix type="matrix" values="0 0 0 0 0 0 0 0 0 0 0 0 0 0 0 0 0 0 0.25 0"/>
<feBlend mode="normal" in2="effect1_innerShadow_244_382" result="effect2_innerShadow_244_382"/>
</filter>
<linearGradient id="paint0_linear_244_382" x1="0" y1="75" x2="150" y2="75" gradientUnits="userSpaceOnUse">
<stop stop-color="#48E3D6"/>
<stop offset="1" stop-color="#C83ECA"/>
</linearGradient>
<linearGradient id="paint1_linear_244_382" x1="0" y1="75" x2="150" y2="75" gradientUnits="userSpaceOnUse">
<stop stop-color="#48E3D6"/>
<stop offset="1" stop-color="#C83ECA"/>
</linearGradient>
<linearGradient id="paint2_linear_244_382" x1="0" y1="75" x2="150" y2="75" gradientUnits="userSpaceOnUse">
<stop stop-color="#48E3D6"/>
<stop offset="1" stop-color="#C83ECA"/>
</linearGradient>
</defs>
</svg>
