<svg width="150" height="150" viewBox="0 0 150 150" fill="none" xmlns="http://www.w3.org/2000/svg">
<g filter="url(#filter0_ii_244_384)">
<path d="M46.8955 49.7256C49.3804 49.7259 51.3953 51.7407 51.3955 54.2256V66.3936H65.4258L70.9258 51.1699C72.3147 52.4663 73.8201 53.556 75.4424 54.4375C77.0646 55.319 78.8003 55.9889 80.6484 56.4482L77.0439 66.3936H94.2539L90.6494 56.4482C92.5014 55.9852 94.239 55.3132 95.8613 54.4316C97.4836 53.5501 98.9878 52.4626 100.373 51.1699L105.873 66.3936H119.125C121.792 66.3936 124.35 67.4533 126.235 69.3389C128.121 71.2243 129.18 73.7819 129.181 76.4482V132.011C129.181 134.677 128.121 137.235 126.235 139.12C124.35 141.006 121.792 142.065 119.125 142.065H35.8545L35.4668 142.066C33.5279 142.048 31.6076 141.669 29.8057 140.947C27.8837 140.177 26.1346 139.032 24.6592 137.579C23.1837 136.126 22.0117 134.394 21.2119 132.484C20.4122 130.575 20 128.525 20 126.454C20 125.68 20.058 124.909 20.1719 124.146V65.3389C20.172 61.1983 21.8173 57.2267 24.7451 54.2988C27.6731 51.3711 31.6445 49.7256 35.7852 49.7256H46.8955ZM51.3955 115.343L51.3896 115.574C51.2691 117.952 49.3029 119.843 46.8955 119.843H35.7852C34.0317 119.843 32.3495 120.54 31.1094 121.779C29.8696 123.019 29.1724 124.701 29.1719 126.454C29.1718 126.78 29.1354 127.099 29.0693 127.405C29.1492 127.955 29.2982 128.494 29.5137 129.009C29.8524 129.818 30.3489 130.551 30.9736 131.166C31.5985 131.781 32.3392 132.267 33.1533 132.593C33.9674 132.919 34.8389 133.08 35.7158 133.066C35.7388 133.066 35.7622 133.065 35.7852 133.065H119.125C119.405 133.065 119.673 132.955 119.871 132.757C120.069 132.559 120.181 132.29 120.181 132.011V76.4482C120.18 76.1688 120.069 75.8998 119.871 75.7021C119.673 75.5046 119.405 75.3936 119.125 75.3936H109.125L115.93 94.2295C116.022 94.5073 116.068 94.924 116.068 95.4795L115.513 101.452C115.327 102.563 114.702 103.329 113.635 103.747C112.568 104.166 111.62 103.956 110.79 103.119L106.346 98.8135L105.65 97.8408L97.5156 75.3936H73.7822L65.6475 97.8408C65.5548 98.1186 65.3235 98.4431 64.9531 98.8135L60.5078 103.119C59.6746 103.952 58.7268 104.162 57.6641 103.747C56.601 103.332 55.9751 102.567 55.7861 101.452L55.2305 95.4795L55.3691 94.2295L62.1738 75.3936H51.3955V115.343ZM35.7852 58.7256C34.0316 58.7256 32.3495 59.4224 31.1094 60.6621C29.8693 61.9022 29.172 63.5852 29.1719 65.3389V112.232C29.3809 112.138 29.5922 112.046 29.8057 111.961C31.7276 111.191 33.7843 110.811 35.8545 110.843H42.3955V58.7256H35.7852ZM85.6494 7C87.2198 6.99635 88.5399 7.53018 89.6104 8.60059C90.6807 9.67094 91.2124 10.9891 91.2051 12.5557V19.2236C94.4459 20.3348 97.109 22.303 99.1943 25.1289C101.28 27.9551 102.321 31.1726 102.317 34.7803C102.317 39.4102 100.697 43.346 97.4561 46.5869C94.2151 49.8279 90.2793 51.4482 85.6494 51.4482C81.0195 51.4482 77.0837 49.8278 73.8428 46.5869C70.6018 43.346 68.9815 39.4102 68.9814 34.7803C68.9814 31.1689 70.024 27.9514 72.1094 25.1289C74.1946 22.3068 76.8558 20.3385 80.0928 19.2236V12.5557C80.0929 10.9817 80.6268 9.66352 81.6934 8.60059C82.7601 7.53754 84.0789 7.0037 85.6494 7ZM85.6494 29.2236C84.0752 29.2236 82.7564 29.7575 81.6934 30.8242C80.6303 31.891 80.0965 33.2098 80.0928 34.7803C80.0891 36.3506 80.623 37.6708 81.6934 38.7412C82.7638 39.8117 84.0826 40.3433 85.6494 40.3359C87.2234 40.3359 88.5437 39.8028 89.6104 38.7363C90.6771 37.6696 91.2087 36.3507 91.2051 34.7803C91.2014 33.2099 90.6684 31.8909 89.6055 30.8242C88.5425 29.7575 87.2235 29.2237 85.6494 29.2236Z" fill="url(#paint0_linear_244_384)"/>
</g>
<defs>
<filter id="filter0_ii_244_384" x="20" y="7" width="109.181" height="136.066" filterUnits="userSpaceOnUse" color-interpolation-filters="sRGB">
<feFlood flood-opacity="0" result="BackgroundImageFix"/>
<feBlend mode="normal" in="SourceGraphic" in2="BackgroundImageFix" result="shape"/>
<feColorMatrix in="SourceAlpha" type="matrix" values="0 0 0 0 0 0 0 0 0 0 0 0 0 0 0 0 0 0 127 0" result="hardAlpha"/>
<feOffset/>
<feGaussianBlur stdDeviation="0.5"/>
<feComposite in2="hardAlpha" operator="arithmetic" k2="-1" k3="1"/>
<feColorMatrix type="matrix" values="0 0 0 0 0.16226 0 0 0 0 0.1875 0 0 0 0 0.184523 0 0 0 0.5 0"/>
<feBlend mode="normal" in2="shape" result="effect1_innerShadow_244_384"/>
<feColorMatrix in="SourceAlpha" type="matrix" values="0 0 0 0 0 0 0 0 0 0 0 0 0 0 0 0 0 0 127 0" result="hardAlpha"/>
<feOffset dy="1"/>
<feGaussianBlur stdDeviation="0.5"/>
<feComposite in2="hardAlpha" operator="arithmetic" k2="-1" k3="1"/>
<feColorMatrix type="matrix" values="0 0 0 0 0 0 0 0 0 0 0 0 0 0 0 0 0 0 0.25 0"/>
<feBlend mode="normal" in2="effect1_innerShadow_244_384" result="effect2_innerShadow_244_384"/>
</filter>
<linearGradient id="paint0_linear_244_384" x1="20" y1="74.5332" x2="129.181" y2="74.5332" gradientUnits="userSpaceOnUse">
<stop stop-color="#48E3D6"/>
<stop offset="1" stop-color="#C83ECA"/>
</linearGradient>
</defs>
</svg>
