<svg width="150" height="150" viewBox="0 0 150 150" fill="none" xmlns="http://www.w3.org/2000/svg">
<g filter="url(#filter0_ii_244_391)">
<path d="M38.4883 30C40.0367 30 41.2919 31.2627 41.292 32.8203V118.846C41.292 120.403 40.0367 121.667 38.4883 121.667H2.80371C1.25525 121.667 0 120.403 0 118.846V32.8203C0.000107551 31.2627 1.25532 30 2.80371 30H38.4883ZM108.081 103.179C109.629 103.179 110.885 104.442 110.885 106V113.537C110.885 115.094 112.14 116.357 113.688 116.357H122.076C123.533 116.358 124.716 117.546 124.716 119.012C124.716 120.478 123.533 121.667 122.076 121.667H75.4795C74.0221 121.667 72.84 120.478 72.8398 119.012C72.84 117.546 74.0221 116.357 75.4795 116.357H83.8652C85.4137 116.357 86.6693 115.095 86.6689 113.537C86.6683 111.12 86.668 108.018 86.6641 107.972C86.664 107.962 86.6606 107.032 86.6611 105.995C86.6621 104.439 87.917 103.179 89.4639 103.179H108.081ZM29.9297 108.013C28.3814 108.013 27.1262 109.276 27.126 110.833C27.126 112.391 28.3813 113.654 29.9297 113.654C31.4781 113.654 32.7334 112.391 32.7334 110.833C32.7332 109.275 31.478 108.013 29.9297 108.013ZM147.196 30C148.745 30.0001 150 31.2627 150 32.8203V95.0479C150 96.6055 148.745 97.8681 147.196 97.8682H50.3682C48.8199 97.8679 47.5645 96.6054 47.5645 95.0479V32.8203C47.5646 31.2628 48.82 30.0002 50.3682 30H147.196ZM90.6582 40.0898C90.2762 39.4128 89.4204 39.1747 88.7471 39.5586C88.074 39.9429 87.8371 40.8041 88.2188 41.4814L114.854 88.7246C115.236 89.402 116.092 89.6398 116.766 89.2559C117.439 88.8717 117.675 88.0113 117.294 87.334L90.6582 40.0898ZM87.3213 68.6357C84.9453 68.6357 82.1268 69.4266 80.6758 72.1084C80.4761 72.4786 80.4308 72.9145 80.5498 73.3184C80.6689 73.7219 80.9428 74.0619 81.3105 74.2627C81.6784 74.4633 82.1115 74.5093 82.5127 74.3896C82.9138 74.2698 83.2516 73.994 83.4512 73.624C84.1072 72.4056 85.494 71.8086 87.3213 71.8086C89.4232 71.8089 90.4754 72.9957 90.4756 74.1377V76.0391H87.3213C84.9664 76.0391 83.1152 76.6317 81.8262 77.7441C80.5183 78.8716 79.961 80.3885 79.9609 81.8564C79.9609 83.6375 80.6862 85.1415 81.8994 86.1738C83.0854 87.1849 84.6504 87.6738 86.2695 87.6738C87.9511 87.6737 89.412 87.2936 90.583 86.6699C90.7175 87.0138 90.9684 87.3 91.29 87.4785C91.6116 87.6569 91.9859 87.7164 92.3467 87.6475C92.7074 87.5784 93.0325 87.3842 93.2666 87.0996C93.5007 86.8148 93.6292 86.4565 93.6289 86.0869V74.1377C93.6287 70.6225 90.4751 68.6361 87.3213 68.6357ZM69.6357 63.3496C69.1032 63.3456 68.5824 63.5087 68.1465 63.8164C67.7103 64.1245 67.3803 64.5627 67.2031 65.0684L60.0752 85.5625C59.9503 85.9558 59.9821 86.3833 60.165 86.7529C60.3481 87.1224 60.6674 87.4063 61.0547 87.543C61.442 87.6795 61.8678 87.659 62.2402 87.4854C62.6126 87.3116 62.9032 86.998 63.0498 86.6123L64.8887 81.3281H74.0938L75.8359 86.5889C75.9721 86.9826 76.2582 87.306 76.6299 87.4902C77.0019 87.6744 77.4318 87.705 77.8252 87.5732C78.2182 87.4414 78.5435 87.1585 78.7314 86.7871C78.9194 86.4153 78.9549 85.9834 78.8291 85.5859L72.0439 65.1074C71.8747 64.5988 71.5516 64.1549 71.1201 63.8398C70.6887 63.5249 70.1688 63.3538 69.6357 63.3496ZM90.4756 82.3857C90.4753 82.5048 90.3432 83.0078 89.6084 83.5508C88.9187 84.0583 87.8083 84.5009 86.2695 84.501C85.2604 84.501 84.4592 84.196 83.9355 83.752C83.4414 83.331 83.1152 82.7195 83.1152 81.8564C83.1153 81.2093 83.346 80.6103 83.8779 80.1514C84.4289 79.6776 85.4689 79.2119 87.3213 79.2119H90.4756V82.3857ZM73.042 78.1543H65.9922L69.6016 67.7773L73.042 78.1543ZM127.289 42.1963C123.943 42.1963 120.733 43.5329 118.367 45.9131C116.001 48.2932 114.673 51.5217 114.673 54.8877C114.673 58.2538 116.001 61.483 118.367 63.8633C120.733 66.2435 123.943 67.58 127.289 67.5801C127.847 67.5801 128.382 67.3576 128.776 66.9609C129.171 66.5642 129.392 66.0259 129.392 65.4648C129.392 64.9151 129.182 64.4213 128.846 64.0547C128.523 63.6739 128.313 63.1804 128.313 62.6445C128.313 62.0837 128.534 61.5451 128.928 61.1484C129.322 60.7518 129.858 60.5293 130.416 60.5293H132.896C134.755 60.5293 136.538 59.7853 137.853 58.4629C139.167 57.1405 139.906 55.3475 139.906 53.4775C139.906 47.2444 134.256 42.1963 127.289 42.1963ZM119.579 50.6572C120.137 50.6573 120.671 50.8807 121.065 51.2773C121.46 51.674 121.682 52.2115 121.682 52.7725C121.682 53.3335 121.46 53.8718 121.065 54.2686C120.671 54.6651 120.137 54.8877 119.579 54.8877C119.021 54.8877 118.486 54.6653 118.092 54.2686C117.698 53.8719 117.477 53.3334 117.477 52.7725C117.477 52.2117 117.698 51.674 118.092 51.2773C118.486 50.8806 119.021 50.6572 119.579 50.6572ZM135 50.6572C135.558 50.6573 136.092 50.8807 136.486 51.2773C136.881 51.674 137.102 52.2116 137.103 52.7725C137.103 53.3335 136.881 53.8718 136.486 54.2686C136.092 54.6651 135.558 54.8876 135 54.8877C134.442 54.8877 133.907 54.6653 133.513 54.2686C133.118 53.8718 132.896 53.3335 132.896 52.7725C132.897 52.2116 133.119 51.674 133.513 51.2773C133.907 50.8806 134.442 50.6572 135 50.6572ZM9.60254 45.9619C8.44131 45.9621 7.5 46.9089 7.5 48.0771C7.50012 49.2453 8.44139 50.1922 9.60254 50.1924H29.2285C30.3898 50.1924 31.3319 49.2453 31.332 48.0771C31.332 46.9089 30.3899 45.9619 29.2285 45.9619H9.60254ZM123.784 45.0166C124.342 45.0166 124.877 45.2391 125.271 45.6357C125.666 46.0325 125.888 46.5708 125.888 47.1318C125.888 47.6927 125.666 48.2303 125.271 48.627C124.877 49.0237 124.342 49.2471 123.784 49.2471C123.227 49.247 122.692 49.0236 122.298 48.627C121.904 48.2303 121.682 47.6927 121.682 47.1318C121.682 46.5708 121.903 46.0325 122.298 45.6357C122.692 45.2392 123.227 45.0167 123.784 45.0166ZM130.794 45.0166C131.351 45.0166 131.886 45.2393 132.28 45.6357C132.675 46.0325 132.896 46.5708 132.896 47.1318C132.896 47.6928 132.675 48.2303 132.28 48.627C131.886 49.0237 131.352 49.2471 130.794 49.2471C130.236 49.2471 129.702 49.0237 129.308 48.627C128.913 48.2303 128.691 47.6928 128.691 47.1318C128.691 46.5708 128.913 46.0325 129.308 45.6357C129.702 45.2393 130.236 45.0166 130.794 45.0166ZM9.60254 37.5C8.44136 37.5001 7.50008 38.4471 7.5 39.6152C7.5 40.7834 8.44131 41.7303 9.60254 41.7305H29.2285C30.3899 41.7305 31.332 40.7835 31.332 39.6152C31.3319 38.447 30.3898 37.5 29.2285 37.5H9.60254Z" fill="url(#paint0_linear_244_391)"/>
</g>
<defs>
<filter id="filter0_ii_244_391" x="0" y="30" width="150" height="95.667" filterUnits="userSpaceOnUse" color-interpolation-filters="sRGB">
<feFlood flood-opacity="0" result="BackgroundImageFix"/>
<feBlend mode="normal" in="SourceGraphic" in2="BackgroundImageFix" result="shape"/>
<feColorMatrix in="SourceAlpha" type="matrix" values="0 0 0 0 0 0 0 0 0 0 0 0 0 0 0 0 0 0 127 0" result="hardAlpha"/>
<feOffset/>
<feGaussianBlur stdDeviation="1.5"/>
<feComposite in2="hardAlpha" operator="arithmetic" k2="-1" k3="1"/>
<feColorMatrix type="matrix" values="0 0 0 0 0.16226 0 0 0 0 0.1875 0 0 0 0 0.184523 0 0 0 0.5 0"/>
<feBlend mode="normal" in2="shape" result="effect1_innerShadow_244_391"/>
<feColorMatrix in="SourceAlpha" type="matrix" values="0 0 0 0 0 0 0 0 0 0 0 0 0 0 0 0 0 0 127 0" result="hardAlpha"/>
<feOffset dy="4"/>
<feGaussianBlur stdDeviation="2"/>
<feComposite in2="hardAlpha" operator="arithmetic" k2="-1" k3="1"/>
<feColorMatrix type="matrix" values="0 0 0 0 0 0 0 0 0 0 0 0 0 0 0 0 0 0 0.25 0"/>
<feBlend mode="normal" in2="effect1_innerShadow_244_391" result="effect2_innerShadow_244_391"/>
</filter>
<linearGradient id="paint0_linear_244_391" x1="0" y1="75.8335" x2="150" y2="75.8335" gradientUnits="userSpaceOnUse">
<stop stop-color="#48E3D6"/>
<stop offset="1" stop-color="#C83ECA"/>
</linearGradient>
</defs>
</svg>
